<?xml version="1.0" encoding="UTF-8"?>
<svg xmlns="http://www.w3.org/2000/svg" width="1024" height="1024" viewBox="0 0 1024 1024">
  <defs>
    <linearGradient id="bgGrad" x1="0" y1="0" x2="1" y2="1">
      <stop offset="0%" stop-color="#0b0f14"/>
      <stop offset="100%" stop-color="#16202b"/>
    </linearGradient>
    <radialGradient id="sheen" cx="20%" cy="0%" r="80%">
      <stop offset="0%" stop-color="#ffffff" stop-opacity="0.28"/>
      <stop offset="60%" stop-color="#ffffff" stop-opacity="0.06"/>
      <stop offset="100%" stop-color="#ffffff" stop-opacity="0"/>
    </radialGradient>
    <linearGradient id="accent" x1="0" y1="0" x2="1" y2="1">
      <stop offset="0%" stop-color="#8b5cf6"/>
      <stop offset="100%" stop-color="#22c55e"/>
    </linearGradient>
    <filter id="glow" x="-50%" y="-50%" width="200%" height="200%">
      <feGaussianBlur stdDeviation="12" result="blur"/>
      <feMerge>
        <feMergeNode in="blur"/>
        <feMergeNode in="SourceGraphic"/>
      </feMerge>
    </filter>
  </defs>
  <!-- Rounded card background -->
  <rect x="64" y="64" width="896" height="896" rx="180" fill="url(#bgGrad)"/>
  <!-- soft inner stroke -->
  <rect x="78" y="78" width="868" height="868" rx="168" fill="none" stroke="#ffffff" stroke-opacity="0.08" stroke-width="3"/>

  <!-- sheen highlight -->
  <ellipse cx="280" cy="160" rx="420" ry="220" fill="url(#sheen)"/>

  <!-- accent ring glow -->
  <circle cx="512" cy="512" r="300" fill="none" stroke="url(#accent)" stroke-width="14" opacity="0.35" filter="url(#glow)"/>

  <!-- abstract signal waves -->
  <g stroke="url(#accent)" stroke-linecap="round" fill="none">
    <path d="M 352 512 C 352 420 420 352 512 352" stroke-width="18"/>
    <path d="M 512 352 C 604 352 672 420 672 512" stroke-width="18"/>
    <path d="M 320 512 C 320 402 402 320 512 320" stroke-width="8" opacity="0.6"/>
    <path d="M 512 320 C 622 320 704 402 704 512" stroke-width="8" opacity="0.6"/>
  </g>

  <!-- center dot -->
  <circle cx="512" cy="512" r="22" fill="#d4af37"/>
  <circle cx="512" cy="512" r="44" fill="none" stroke="#d4af37" stroke-opacity="0.5" stroke-width="4"/>

  <!-- subtle bottom glow -->
  <ellipse cx="512" cy="800" rx="360" ry="80" fill="#22c55e" opacity="0.06"/>
</svg>

