<?xml version="1.0" encoding="UTF-8"?>
<svg xmlns="http://www.w3.org/2000/svg" width="1024" height="1024" viewBox="0 0 1024 1024">
  <defs>
    <linearGradient id="bgGrad" x1="0" y1="0" x2="1" y2="1">
      <stop offset="0%" stop-color="#0b0f14"/>
      <stop offset="100%" stop-color="#16202b"/>
    </linearGradient>
    <radialGradient id="sheen" cx="15%" cy="0%" r="90%">
      <stop offset="0%" stop-color="#ffffff" stop-opacity="0.22"/>
      <stop offset="70%" stop-color="#ffffff" stop-opacity="0.05"/>
      <stop offset="100%" stop-color="#ffffff" stop-opacity="0"/>
    </radialGradient>
    <linearGradient id="accent" x1="0" y1="0" x2="1" y2="1">
      <stop offset="0%" stop-color="#8b5cf6"/>
      <stop offset="100%" stop-color="#22c55e"/>
    </linearGradient>
    <filter id="glow" x="-50%" y="-50%" width="200%" height="200%">
      <feGaussianBlur stdDeviation="14" result="blur"/>
      <feMerge>
        <feMergeNode in="blur"/>
        <feMergeNode in="SourceGraphic"/>
      </feMerge>
    </filter>
  </defs>
  <!-- Full-bleed background for maskable safety -->
  <rect x="0" y="0" width="1024" height="1024" rx="220" fill="url(#bgGrad)"/>
  <rect x="16" y="16" width="992" height="992" rx="212" fill="none" stroke="#ffffff" stroke-opacity="0.06" stroke-width="3"/>

  <ellipse cx="260" cy="130" rx="520" ry="260" fill="url(#sheen)"/>
  <circle cx="512" cy="560" r="360" fill="none" stroke="url(#accent)" stroke-width="18" opacity="0.32" filter="url(#glow)"/>

  <!-- abstract signal waves -->
  <g stroke="url(#accent)" stroke-linecap="round" fill="none">
    <path d="M 312 540 C 312 420 420 312 540 312" stroke-width="20"/>
    <path d="M 540 312 C 660 312 768 420 768 540" stroke-width="20"/>
    <path d="M 276 540 C 276 394 394 276 540 276" stroke-width="10" opacity="0.6"/>
    <path d="M 540 276 C 686 276 804 394 804 540" stroke-width="10" opacity="0.6"/>
  </g>

  <circle cx="540" cy="540" r="26" fill="#d4af37"/>
  <circle cx="540" cy="540" r="52" fill="none" stroke="#d4af37" stroke-opacity="0.55" stroke-width="4"/>

  <ellipse cx="540" cy="860" rx="420" ry="90" fill="#22c55e" opacity="0.06"/>
</svg>

